<?xml version='1.0' encoding='utf-8'?>
<svg xmlns="http://www.w3.org/2000/svg" fill="none" viewBox="0 0 200 200"> <g clip-path="url(#a)"> <rect width="200" height="200" fill="#fff"/> <path d="m200 160h-200v-4h200v4z" clip-rule="evenodd" fill="#212121" fill-rule="evenodd"/> <path d="m71.025 45.907 2.7071-10.548s-7.3304-1.9123-6.693-10.518c0.8066-10.889 14.705-14.088 25.497-12.43 9.3993 1.4442 19.441 8.0885 19.441 15.617 0 3.4714-2.096 10.303-14.023 12.674-6.9788 1.3877-12.726 0.4383-15.664-0.7247-1.316-0.5208-3.2281-1.647-3.2281-1.647l-3.7367 3.721-4.3007 3.8552z" fill="#D9D9D9"/> <path d="m75.49 12.527c5.2255-2.0731 11.678-2.4579 17.274-1.598 4.9356 0.7584 10.03 2.8744 13.922 5.8124 3.852 2.9081 6.792 6.8409 6.792 11.287 0 2.0227-0.609 4.954-2.882 7.705-2.282 2.7609-6.126 5.2031-12.349 6.4404-7.2362 1.4389-13.278 0.4773-16.509-0.8011-0.7443-0.2946-1.6157-0.7416-2.2678-1.0934-0.0527-0.0285-0.1043-0.0565-0.1548-0.084l-2.9596 2.9473-4.3301 3.8815c-0.492 0.4411-1.2147 0.5082-1.7796 0.1653-0.5648-0.3429-0.8388-1.0151-0.6745-1.6551l2.3755-9.2563c-0.773-0.3598-1.7932-0.9396-2.796-1.8284-2.0684-1.8334-3.965-4.9054-3.6084-9.7192 0.4598-6.208 4.6919-10.119 9.9468-12.204zm-1.3777 21.381c0.0018 5e-4 0.0037 1e-3 0.0056 0.0015l-0.0021-5e-4 -0.0022-6e-4 -0.0013-4e-4zm0.1829 7.0535 3.7087-3.6932c0.4837-0.4816 1.2315-0.576 1.8196-0.2297m-5.5283 3.9229-0.5874 0.5265 1.4773-5.7561c0.2047-0.7978-0.2721-1.6109-1.0672-1.8224l-0.0021-5e-4c-0.0049-0.0014-0.0163-0.0047-0.0337-0.0099-0.0347-0.0105-0.0933-0.0288-0.1721-0.0562-0.1579-0.0548-0.3949-0.1448-0.6828-0.2781-0.5793-0.2684-1.3436-0.7023-2.0857-1.3601-1.4374-1.2741-2.8874-3.461-2.6065-7.2525 0.3467-4.6813 3.4671-7.8143 8.0612-9.6368 4.6235-1.8342 10.517-2.2197 15.712-1.4214 4.4634 0.6858 9.0891 2.614 12.569 5.2414 3.52 2.6574 5.6 5.811 5.6 8.8932 0 1.4486-0.438 3.6686-2.195 5.7939-1.748 2.1156-4.916 4.2748-10.621 5.4092-6.7213 1.3365-12.172 0.3993-14.82-0.6483-0.5716-0.2262-1.3143-0.6026-1.9473-0.9442-0.3092-0.1668-0.5792-0.3181-0.7716-0.4276-0.096-0.0547-0.1723-0.0986-0.224-0.1286l-0.0584-0.034-0.0141-0.0083-0.0036-0.0021-0.7611 1.2926c0.7612-1.2925 0.7612-1.2926 0.7611-1.2926m-5.7056-3.1291c3e-4 1e-4 4e-4 1e-4 0 0z" clip-rule="evenodd" fill="#212121" fill-rule="evenodd"/> <path d="m0 161c0-0.552 0.44772-1 1-1h215c0.552 0 1 0.448 1 1v71c0 0.552-0.448 1-1 1h-215c-0.55228 0-1-0.448-1-1v-71z" fill="#D9D9D9"/> <path d="m14.082 92.976c6.572-5.4268 15.975-7.0034 21.087-7.4603 1.5755-0.1409 2.5466 1.5643 1.7558 2.9343-3.7438 6.4861-11.374 21.504-7.1011 29.713 7.8921 15.163 33.732 4.048 41.378 8.545 1.4391 0.847 0.7737 3.582 0.312 4.991-0.1807 0.551-0.6289 0.96-1.1804 1.141l-22.491 7.36c-0.8219 0.269-1.3779 1.036-1.3779 1.901v22.081c0 0.96 0.6831 1.785 1.6269 1.965l20.806 3.95c2.2562 0.429 2.1208 3.621-0.1661 3.83-1.8748 0.172-3.7304 0.331-5.4008 0.456-18.697 1.404-29.977 1.939-48.574 0-0.9392-0.098-1.9428-0.204-2.9736-0.315-2.2882-0.245-2.4038-3.503-0.14-3.917l21.938-4.013c0.95-0.174 1.6402-1.002 1.6402-1.968v-21.676c0-1.042-0.7927-1.917-1.8212-2.079-3.665-0.577-12.19-2.433-19.318-7.86-12.298-9.363-11.918-29.737 0-39.579z" fill="#35B3BB"/> <path d="m31.494 90.024c-4.7457 0.811-10.609 2.5215-14.866 6.0368-4.9245 4.0664-7.5871 10.433-7.6281 16.91-0.04095 6.467 2.5266 12.612 7.5042 16.402 6.3436 4.83 14.09 6.551 17.517 7.091 2.8544 0.449 5.1991 2.901 5.1991 6.03v21.676c0 2.898-2.0704 5.381-4.9204 5.902l-7.113 1.302c8.822 0.472 16.464 0.291 25.589-0.266l-5.4308-1.032c-2.8315-0.537-4.8808-3.012-4.8808-5.894v-22.081c0-2.595 1.6678-4.895 4.1338-5.702l20.599-6.742c-0.0239-3e-3 -0.0481-5e-3 -0.0725-8e-3 -1.1524-0.124-2.5827-0.128-4.3141-0.045-1.5609 0.074-3.2405 0.211-5.0692 0.361-0.1939 0.016-0.3894 0.032-0.5866 0.048-2.0261 0.165-4.2017 0.335-6.3975 0.419-8.3425 0.319-19.3-0.464-24.482-10.422-1.5203-2.921-1.8639-6.203-1.6628-9.3 0.2023-3.115 0.9724-6.314 1.9561-9.301 1.3767-4.1798 3.259-8.2022 4.9258-11.385zm16.597 76.123c-0.9438-0.18-1.6269-1.005-1.6269-1.965v-22.081c0-0.865 0.556-1.632 1.3779-1.901l22.491-7.36c0.5515-0.181 0.9997-0.59 1.1804-1.141 0.4617-1.409 1.1271-4.144-0.312-4.991-2.7736-1.631-7.9416-1.208-13.779-0.73-10.253 0.839-22.57 1.848-27.6-7.815-4.2726-8.209 3.3573-23.227 7.1011-29.713 0.7908-1.37-0.1803-3.0752-1.7558-2.9343-5.1123 0.4569-14.515 2.0335-21.087 7.4603-11.918 9.8418-12.298 30.216 0 39.579 7.1274 5.427 15.653 7.283 19.318 7.86 1.0285 0.162 1.8212 1.037 1.8212 2.079v21.676c0 0.966-0.6902 1.794-1.6402 1.968l-21.938 4.013c-2.2638 0.414-2.1482 3.672 0.14 3.917 1.0308 0.111 2.0344 0.217 2.9736 0.315 18.598 1.939 29.877 1.404 48.574 0 1.4476-0.108 3.0343-0.243 4.6521-0.388 0.0084-1e-3 0.0168-2e-3 0.0252-2e-3 0.0508-5e-3 0.1017-9e-3 0.1526-0.014 0.19-0.017 0.3803-0.035 0.5709-0.052 2.2869-0.209 2.4223-3.401 0.1661-3.83l-20.806-3.95z" clip-rule="evenodd" fill="#212121" fill-rule="evenodd"/> <path d="m57.84 81c-1.1201-4.2004-6.6909-8.8965-6.6909-8.8965h-6.8091l-9.5 11.397s-7.3389 8.3297-9.5873 20.343c-1.31 6.999 0.9421 13.573 4.4977 17.671 3.5555 4.097 6.8718 5.466 12.144 6.747 9.2552 2.248 19.446 0 25.636 2.248 3.8096 1.384 3.8096 2.991 5.8469 12.594-4.2516 11.241-9.0879 28.784-9.0879 28.784s6.6353-8.118 10.887-13.387v13.387s5.9141-5.387 8.9952-25.636c2.0162-13.251-0.8316-18.519-4.9474-21.589l-13.884-13.662s-2.9616-3.205-5.5-6c0.5-8.843 0-16.5-2-24z" fill="#fff"/> <path d="m27.34 108c0.5-12 6.1941-18.5 6.1941-18.5s-3.806 10.507-3.5 19.503c0.3059 8.997 4.3059 13.497 4.3059 13.497s-7.4166-4.5-7-14.5z" fill="#D9D9D9"/> <path d="m52.438 70.574c-0.3607-0.304-0.8172-0.4708-1.289-0.4708h-6.8091c-0.5934 0-1.1563 0.2635-1.5362 0.7194l-9.4861 11.38-0.0112 0.0129c-0.018 0.0207-0.0427 0.0495-0.0739 0.0863-0.0624 0.0735-0.1507 0.1788-0.2617 0.3148-0.222 0.272-0.5353 0.667-0.9153 1.176-0.7596 1.0174-1.7886 2.4941-2.8884 4.3571-2.1941 3.7168-4.7009 9.0235-5.8803 15.325-1.4259 7.618 1.0105 14.806 4.9529 19.35 1.9196 2.212 3.8289 3.745 6.0093 4.889 2.1513 1.13 4.4874 1.838 7.1726 2.49 4.861 1.181 9.9228 1.181 14.337 1.181h0.1032c4.6055 0 8.2948 0.026 10.986 1.004 0.8524 0.31 1.303 0.567 1.6021 0.828 0.2747 0.24 0.5378 0.584 0.8195 1.268 0.2973 0.723 0.5776 1.727 0.9206 3.237 0.2218 0.976 0.4567 2.1 0.7352 3.434 0.1166 0.559 0.2408 1.153 0.3749 1.79-2.0904 5.6-4.2885 12.574-5.9762 18.189-0.8735 2.906-1.6135 5.459-2.1352 7.286-0.261 0.914-0.4674 1.647-0.6088 2.151-0.0706 0.252-0.1251 0.448-0.1619 0.58l-0.0561 0.203c-1e-4 0-3e-4 1e-3 1.9278 0.532 1.5485 1.266 1.5485 1.266 1.5486 1.266l0.0011-1e-3 1.1028-1.351c0.6888-0.843 1.6515-2.023 2.7471-3.368 1.0781-1.323 2.2854-2.806 3.4874-4.286v7.74c0 0.792 0.4673 1.51 1.1918 1.83 0.7244 0.32 1.5695 0.182 2.155-0.351l-1.3468-1.479c1.3468 1.479 1.348 1.478 1.3492 1.477l0.0025-3e-3 0.0055-5e-3 0.0124-0.011 0.0311-0.029c0.0234-0.023 0.0521-0.051 0.086-0.085 0.0677-0.068 0.1556-0.16 0.2617-0.279 0.2123-0.236 0.4968-0.577 0.8364-1.04 0.6795-0.926 1.5777-2.339 2.56-4.383 1.9641-4.087 4.2628-10.693 5.8276-20.977 1.031-6.776 0.8559-11.727-0.2307-15.471-1.0912-3.76-3.0667-6.179-5.3856-7.937l-13.756-13.536-0.4688-0.508c-0.3168-0.344-0.7656-0.831-1.2937-1.405-0.9019-0.982-2.0337-2.216-3.1328-3.423 0.4305-8.6395-0.1042-16.269-2.109-23.787-0.6915-2.5931-2.653-5.1185-4.213-6.8478-0.8127-0.9009-1.5854-1.6596-2.1548-2.1933-0.2855-0.2676-0.5219-0.4805-0.6893-0.6285-0.0837-0.074-0.1504-0.1319-0.1974-0.1725l-0.0555-0.0476-0.0162-0.0138-0.0051-0.0043-0.0018-0.0015-0.0013-0.0011c-3e-4 -2e-4 0 0-1.289 1.5292l1.289-1.5292zm-2.0481 3.5292c0.085 0.0777 0.1785 0.1641 0.2794 0.2587 0.51 0.478 1.2001 1.1559 1.9201 1.954 1.5054 1.6689 2.8894 3.5917 3.318 5.1991 1.3509 5.0658 1.9999 10.227 2.0993 15.85-0.1285-0.31-0.2509-0.6143-0.3669-0.9108-0.4516-1.1534-0.7978-2.1611-1.0303-2.8779-0.1161-0.358-0.2035-0.6422-0.2611-0.8344-0.0288-0.0961-0.0502-0.169-0.0639-0.2166l-0.0149-0.052-0.0035-0.0122c-0.2974-1.0635-1.4008-1.6851-2.4645-1.3879-1.0638 0.2973-1.6852 1.4007-1.3879 2.4645l1.9262-0.5383c-1.9262 0.5383-1.9263 0.538-1.9262 0.5383l4e-4 0.0013 6e-4 0.0021 0.0017 6e-3 0.0056 0.0198 0.02 0.0697c0.0172 0.0597 0.0422 0.1452 0.075 0.2543 0.0654 0.2181 0.1616 0.5309 0.2877 0.9195 0.2518 0.7765 0.6244 1.8608 1.1103 3.102 0.9617 2.4561 2.4092 5.6371 4.3039 8.2581 0.0436 0.061 0.0905 0.118 0.1405 0.174 1.273 1.401 2.6511 2.905 3.71 4.057 0.5296 0.576 0.9799 1.064 1.2977 1.409l0.5033 0.546c0.0215 0.023 0.0441 0.046 0.0667 0.068l5.1907 5.108c-0.2243-0.073-0.4475-0.145-0.6699-0.217-2.8195-0.914-5.5149-1.787-8.6308-3.555-0.1534-0.088-0.3053-0.174-0.4559-0.259-6.7673-3.839-10.714-6.077-13.155-12.694-0.7574-2.0533-1.3458-5.1262-1.7472-7.8008-0.1972-1.3138-0.3436-2.4909-0.4406-3.3392-0.0485-0.4238-0.0845-0.7644-0.1083-0.9977-0.0119-0.1167-0.0207-0.2065-0.0265-0.2663l-0.0064-0.067-0.0018-0.0194v0c-0.101-1.0998-1.0744-1.9102-2.1743-1.8093-1.1 0.1009-1.9099 1.0743-1.809 2.1743l1.9916-0.1827c-1.9916 0.1827-1.9916 0.1825-1.9916 0.1827l8e-4 0.0085 0.0019 0.0206 0.0074 0.0768c0.0064 0.0665 0.0159 0.1633 0.0285 0.2873 0.0253 0.2479 0.0631 0.6049 0.1136 1.0466 0.1009 0.8826 0.2532 2.1076 0.459 3.4785 0.4045 2.6948 1.0391 6.122 1.9501 8.5911 2.9535 8.005 8.0755 10.906 14.641 14.623 0.2475 0.14 0.497 0.282 0.7486 0.424 3.4927 1.983 6.5794 2.98 9.3999 3.892 0.4157 0.134 0.8255 0.267 1.2301 0.4 3.1388 1.036 6.104 2.168 9.5458 4.735 1.7483 1.303 3.2081 3.036 4.0481 5.93 0.8622 2.971 1.1029 7.279 0.1176 13.754-1.3867 9.114-3.3446 15.089-5.0179 18.85v-6.3c0-5.439-0.4635-9.312-1.8426-15.812-0.1733-0.817-0.3332-1.583-0.4829-2.299-0.2843-1.362-0.5313-2.545-0.7607-3.554-0.349-1.536-0.6888-2.82-1.1224-3.873-0.4491-1.09-1.0276-2.007-1.8881-2.758-0.836-0.73-1.814-1.192-2.8664-1.574-3.4291-1.246-7.8206-1.246-12.09-1.245h-0.2617c-4.5189 0-9.139-9e-3 -13.495-1.068-2.5865-0.628-4.5444-1.245-6.2581-2.144-1.6845-0.885-3.2112-2.085-4.8472-3.97-3.1687-3.652-5.2364-9.612-4.0423-15.992 1.069-5.7118 3.3558-10.576 5.3932-14.028 1.016-1.721 1.9622-3.0776 2.649-3.9975 0.3431-0.4596 0.6207-0.8091 0.8089-1.0396 0.094-0.1153 0.1656-0.2006 0.2118-0.255 0.0231-0.0272 0.0398-0.0466 0.0498-0.0582l0.0094-0.0108c0.0118-0.0134 0.0241-0.0277 0.0356-0.0415l8.9003-10.677h5.1134zm22.784 83.694c-1.309 1.62-2.8018 3.459-4.2411 5.229 0.0729-0.244 0.1469-0.49 0.2218-0.74 1.0533-3.504 2.2969-7.508 3.5809-11.355 0.292 2.304 0.4186 4.427 0.4384 6.866zm-8.8842 14.09 1.5486 1.266c-0.5982 0.732-1.6273 0.945-2.4671 0.511-0.8397-0.434-1.2608-1.397-1.0096-2.308l1.9281 0.531z" clip-rule="evenodd" fill="#212121" fill-rule="evenodd"/> <path d="m38.34 61.94c0 7.6989 6.2412 13.94 13.94 13.94s13.94-6.2412 13.94-13.94-6.2412-13.94-13.94-13.94-13.94 6.2412-13.94 13.94z" fill="#fff"/> <path d="m42.84 62.003c0-7.0033 5-8.0033 5-8.0033s-3.2867 3-3.3842 8.0033 3.5 8.5 3.5 8.5-5.1158-2.5033-5.1158-8.5z" fill="#D9D9D9"/> <path d="m52.28 71.88c-5.4897 0-9.9401-4.4503-9.9401-9.9401s4.4504-9.9401 9.9401-9.9401c5.4898 0 9.9401 4.4503 9.9401 9.9401s-4.4503 9.9401-9.9401 9.9401zm0 4c-7.6989 0-13.94-6.2412-13.94-13.94s6.2412-13.94 13.94-13.94 13.94 6.2412 13.94 13.94-6.2412 13.94-13.94 13.94z" clip-rule="evenodd" fill="#212121" fill-rule="evenodd"/> <path d="m185.6 90.976c-6.572-5.4268-15.975-7.0034-21.087-7.4603-1.575-0.1409-2.547 1.5643-1.756 2.9343 3.744 6.4861 11.374 21.504 7.101 29.713-7.892 15.163-33.732 4.048-41.378 8.545-1.439 0.847-0.773 3.582-0.312 4.991 0.181 0.551 0.629 0.96 1.181 1.141l22.49 7.36c0.822 0.269 1.378 1.036 1.378 1.901v22.081c0 0.96-0.683 1.785-1.627 1.965l-20.806 3.95c-2.256 0.429-2.121 3.621 0.166 3.83 1.875 0.172 3.731 0.331 5.401 0.456 18.697 1.404 29.977 1.939 48.574 0 0.94-0.098 1.943-0.204 2.974-0.315 2.288-0.245 2.404-3.503 0.14-3.917l-21.938-4.013c-0.95-0.174-1.64-1.002-1.64-1.968v-21.676c0-1.042 0.793-1.917 1.821-2.079 3.665-0.577 12.191-2.433 19.318-7.86 12.298-9.363 11.918-29.737 0-39.579z" fill="#35B3BB"/> <path d="m168.18 88.024c4.746 0.811 10.609 2.5215 14.866 6.0368 4.925 4.0664 7.587 10.433 7.628 16.91 0.041 6.467-2.526 12.612-7.504 16.402-6.344 4.83-14.089 6.551-17.517 7.091-2.854 0.449-5.199 2.901-5.199 6.03v21.676c0 2.898 2.071 5.381 4.921 5.902l7.113 1.302c-8.822 0.472-16.465 0.291-25.589-0.266l5.43-1.032c2.832-0.537 4.881-3.012 4.881-5.894v-22.081c0-2.595-1.668-4.895-4.134-5.702l-20.599-6.742c0.024-3e-3 0.048-5e-3 0.073-8e-3 1.152-0.124 2.583-0.128 4.314-0.045 1.561 0.074 3.241 0.211 5.069 0.361 0.194 0.016 0.39 0.032 0.587 0.048 2.026 0.165 4.201 0.335 6.397 0.419 8.343 0.319 19.3-0.464 24.483-10.422 1.52-2.921 1.863-6.203 1.662-9.3-0.202-3.115-0.972-6.314-1.956-9.3008-1.376-4.18-3.259-8.2024-4.926-11.385zm-16.597 76.123c0.944-0.18 1.627-1.005 1.627-1.965v-22.081c0-0.865-0.556-1.632-1.378-1.901l-22.49-7.36c-0.552-0.181-1-0.59-1.181-1.141-0.461-1.409-1.127-4.144 0.312-4.991 2.774-1.631 7.942-1.208 13.779-0.73 10.253 0.839 22.57 1.848 27.599-7.815 4.273-8.209-3.357-23.227-7.101-29.713-0.791-1.37 0.181-3.0752 1.756-2.9343 5.112 0.4569 14.515 2.0335 21.087 7.4603 11.918 9.8418 12.298 30.216 0 39.579-7.127 5.427-15.653 7.283-19.318 7.86-1.028 0.162-1.821 1.037-1.821 2.079v21.676c0 0.966 0.69 1.794 1.64 1.968l21.938 4.013c2.264 0.414 2.148 3.672-0.14 3.917-1.031 0.111-2.034 0.217-2.974 0.315-18.597 1.939-29.877 1.404-48.574 0-1.448-0.108-3.034-0.243-4.652-0.388-8e-3 -1e-3 -0.017-2e-3 -0.025-2e-3 -0.051-5e-3 -0.102-9e-3 -0.153-0.014-0.19-0.017-0.38-0.035-0.571-0.052-2.287-0.209-2.422-3.401-0.166-3.83l20.806-3.95z" clip-rule="evenodd" fill="#212121" fill-rule="evenodd"/> <path d="m146.48 81.939c0.691-4.8854 3.737-7.9187 8.459-9.4116 6.921-2.1884 13.27 2.7173 16.011 9.4116 5.882 14.365 5.384 20.805 5.384 23.777s-0.739 9.051-5.384 14.379c-3.538 4.059-6.838 5.415-12.084 6.684-9.211 2.228-23.333 0.881-25.512 2.228-2.18 1.346-4.289 4.449-5.819 12.476 4.231 11.137 9.044 28.517 9.044 28.517l-10.834-13.367v13.367s-8.185-14.914-8.952-25.398c-0.588-8.051-1.66-14.563 4.924-21.388l6.908-6.767 6.908-6.768s4.423-3.95 6.469-7.091c3.343-5.1329 2.843-9.088 4.478-20.649z" fill="#fff"/> <path d="m146.34 107c3.264-3.028 7-8.5 7-8.5s-3 6-6.5 10c-2.5 2.857-13 6-13 6s8.326-3.628 12.5-7.5z" fill="#D9D9D9"/> <path d="m154.33 70.621c8.334-2.6352 15.523 3.3747 18.465 10.561 2.988 7.298 4.382 12.647 5.021 16.599 0.558 3.4493 0.533 5.8083 0.517 7.3143-2e-3 0.226-5e-3 0.433-5e-3 0.621 0 3.246-0.799 9.869-5.876 15.693-1.912 2.193-3.813 3.713-5.983 4.847-2.142 1.119-4.467 1.82-7.139 2.467-4.847 1.172-10.892 1.39-15.818 1.5-0.57 0.012-1.123 0.024-1.658 0.034-1.828 0.037-3.447 0.07-4.786 0.144-0.862 0.047-1.551 0.11-2.065 0.19-0.467 0.074-0.633 0.141-0.635 0.137 0 0 0-1e-3 1e-3 -1e-3 -1.389 0.873-3.286 3.163-4.768 10.581 2.082 5.551 4.271 12.465 5.951 18.032 0.87 2.879 1.606 5.409 2.125 7.219 0.26 0.905 0.465 1.631 0.606 2.131 0.07 0.25 0.125 0.443 0.161 0.574l0.056 0.201s0 1e-3 -1.927 0.535l1.927-0.534c0.253 0.913-0.169 1.878-1.011 2.312s-1.873 0.217-2.47-0.519l-7.28-8.982v7.723c0 0.913-0.619 1.711-1.504 1.937-0.884 0.227-1.81-0.174-2.25-0.975l1.754-0.962c-1.754 0.962-1.753 0.963-1.754 0.962l-7e-3 -0.014-0.02-0.036c-0.017-0.031-0.041-0.076-0.073-0.135-0.063-0.117-0.154-0.287-0.269-0.507-0.232-0.44-0.561-1.076-0.958-1.871-0.793-1.589-1.858-3.819-2.948-6.384-2.156-5.071-4.509-11.677-4.918-17.267-0.041-0.563-0.085-1.126-0.13-1.69-0.263-3.333-0.527-6.671-0.084-9.883 0.538-3.897 2.1-7.625 5.693-11.349 0.013-0.014 0.027-0.027 0.04-0.041l13.817-13.535c0.022-0.021 0.044-0.042 0.067-0.063l2e-3 -1e-3 7e-3 -7e-3 0.033-0.03c0.03-0.027 0.076-0.068 0.135-0.123 0.119-0.108 0.293-0.269 0.509-0.471 0.433-0.407 1.031-0.98 1.69-1.648 1.345-1.363 2.842-3.018 3.749-4.41 1.478-2.2696 2.114-4.2559 2.581-7.1422 0.235-1.4559 0.423-3.11 0.654-5.1545l0.012-0.1045c0.236-2.0783 0.514-4.5169 0.927-7.4367 0.397-2.8086 1.491-5.1749 3.229-7.0555 1.726-1.8669 3.996-3.1574 6.607-3.9829zm-17.434 40.516-4.209 4.124c1.821-0.679 3.62-1.289 5.327-1.867 1.152-0.391 2.262-0.767 3.309-1.141 5.359-1.913 7.525-5.147 10.794-10.682 1.046-1.7706 1.991-4.3556 2.69-6.6067 0.343-1.1041 0.615-2.0896 0.802-2.7982 0.093-0.3539 0.164-0.6375 0.212-0.8309 0.024-0.0967 0.042-0.1708 0.054-0.2198l0.013-0.0543 3e-3 -0.0147c0.251-1.0756 1.326-1.7448 2.401-1.4944 1.076 0.2505 1.745 1.3257 1.495 2.4015l-1.948-0.4535c1.948 0.4535 1.948 0.4532 1.948 0.4535l-2e-3 8e-3 -4e-3 0.0184-0.016 0.0665c-0.014 0.0574-0.034 0.1402-0.06 0.2461-0.052 0.2116-0.129 0.5156-0.228 0.8917-0.197 0.7511-0.486 1.7945-0.85 2.967-0.716 2.3022-1.771 5.2618-3.066 7.4538-3.302 5.59-6.084 9.984-12.893 12.415-1.176 0.42-2.376 0.829-3.587 1.241-5.653 1.925-11.516 3.922-16.025 7.439-2.922 3.064-4.095 5.976-4.516 9.022-0.379 2.746-0.157 5.591 0.106 8.95 0.045 0.579 0.091 1.173 0.136 1.784 0.358 4.893 2.481 10.987 4.609 15.994 0.116 0.273 0.232 0.543 0.348 0.809v-4.626c0-0.025 0-0.049 1e-3 -0.074l1.999 0.074c-1.999-0.074-1.999-0.073-1.999-0.074v-7e-3l1e-3 -0.019 3e-3 -0.067c2e-3 -0.058 6e-3 -0.142 0.011-0.251 0.011-0.219 0.027-0.537 0.052-0.942 0.049-0.811 0.131-1.973 0.262-3.388 0.26-2.827 0.715-6.682 1.495-10.777 1.553-8.144 3.798-11.99 6.732-13.803 0.641-0.395 1.45-0.565 2.085-0.665 0.711-0.112 1.555-0.183 2.467-0.233 1.416-0.078 3.133-0.113 4.976-0.15 0.524-0.01 1.058-0.021 1.599-0.033 4.982-0.111 10.603-0.334 14.966-1.389 2.574-0.623 4.522-1.233 6.227-2.124 1.676-0.876 3.194-2.064 4.821-3.93 4.212-4.832 4.891-10.366 4.891-13.065 0-0.209 3e-3 -0.429 5e-3 -0.664 0.015-1.486 0.036-3.535-0.465-6.6327-0.583-3.6016-1.881-8.6551-4.775-15.722-2.539-6.2026-8.05-10.004-13.557-8.2626-2.111 0.6674-3.725 1.64-4.876 2.8844-1.137 1.2306-1.912 2.8237-2.206 4.9004-0.404 2.8606-0.677 5.2517-0.912 7.3268l-0.019 0.1685c-0.226 1.9901-0.422 3.7274-0.673 5.2787-0.528 3.2647-1.313 5.8227-3.178 8.6867-1.139 1.748-2.876 3.639-4.254 5.036-0.702 0.712-1.338 1.322-1.799 1.755-0.23 0.216-0.418 0.389-0.549 0.509-0.065 0.059-0.117 0.106-0.152 0.138l-0.022 0.019zm-9.123 44.83c8e-3 -0.134 0.017-0.285 0.027-0.451 0.047-0.775 0.126-1.896 0.252-3.265 0.071-0.775 0.158-1.629 0.262-2.544 1.223 3.669 2.403 7.457 3.409 10.789 0.056 0.184 0.111 0.366 0.165 0.547l-4.115-5.076z" clip-rule="evenodd" fill="#212121" fill-rule="evenodd"/> <path d="m169.22 60.94c0 7.6989-6.241 13.94-13.94 13.94s-13.94-6.2412-13.94-13.94 6.241-13.94 13.94-13.94 13.94 6.2412 13.94 13.94z" fill="#fff"/> <path d="m164.92 61.003c0-7.0033-5.116-8.5033-5.116-8.5033s3.403 3.5 3.5 8.5033c0.098 5.0033-3.5 8.5-3.5 8.5s5.116-2.5033 5.116-8.5z" fill="#D9D9D9"/> <path d="m155.28 70.88c5.49 0 9.94-4.4503 9.94-9.9401s-4.45-9.9401-9.94-9.9401-9.94 4.4503-9.94 9.9401 4.45 9.9401 9.94 9.9401zm0 4c7.699 0 13.94-6.2412 13.94-13.94s-6.241-13.94-13.94-13.94-13.94 6.2412-13.94 13.94 6.241 13.94 13.94 13.94z" clip-rule="evenodd" fill="#212121" fill-rule="evenodd"/> </g> <defs> <clipPath id="a"> <rect width="200" height="200" fill="#fff"/> </clipPath> </defs> </svg>